<svg width="800" height="600" xmlns="http://www.w3.org/2000/svg">
 <g id="Layer_1">
  <title>Layer 1</title>
  <path fill="#fff" stroke="#000" d="m-137.17579,29.47434l2.29186,0l0.7082,-6.8755l0.7082,6.8755l2.29186,0l-1.85415,4.24925l0.70824,6.8755l-1.85415,-4.24936l-1.85415,4.24936l0.70824,-6.8755l-1.85415,-4.24925z" id="svg_3"/>
  <path stroke="#000" id="svg_1" d="m-261.39542,103.26596l0,0c0,-194.4063 159.38836,-352.00377 356.00381,-352.00377l0,0c94.41804,0 184.96904,37.08598 251.73266,103.09949c66.76369,66.01354 104.27115,155.54704 104.27115,248.90428l0,0c0,194.40627 -159.38836,352.00377 -356.00381,352.00377l0,0c-196.61543,0 -356.00381,-157.5975 -356.00381,-352.00377zm178.00191,0l0,0c0,97.20312 79.69423,176.00189 178.00191,176.00189c98.30775,0 178.00191,-78.79876 178.00191,-176.00189c0,-97.20312 -79.6942,-176.00189 -178.00191,-176.00189l0,0c-98.30768,0 -178.00191,78.79878 -178.00191,176.00189z" fill="#fff"/>
  <path stroke="#000" id="svg_11" d="m487.83282,516.99041l0,0c0,-150.77533 138.3455,-273.0029 309.00329,-273.0029l0,0c81.95273,0 160.54897,28.76271 218.49828,79.96068c57.94938,51.19799 90.50501,120.63733 90.50501,193.04222l0,0c0,150.77531 -138.3455,273.0029 -309.00329,273.0029l0,0c-170.65777,0 -309.00329,-122.2276 -309.00329,-273.0029zm154.50165,0l0,0c0,75.38764 69.17279,136.50145 154.50165,136.50145c85.32892,0 154.50165,-61.11381 154.50165,-136.50145c0,-75.38764 -69.17277,-136.50145 -154.50165,-136.50145l0,0c-85.32885,0 -154.50165,61.11383 -154.50165,136.50145z" fill="#fff"/>
  <path id="svg_12" d="m1144.92959,141.38134l0,0c0,-0.41145 0.33355,-0.745 0.745,-0.745l0,0c0.19759,0 0.38708,0.07849 0.52679,0.21821c0.13971,0.13971 0.21821,0.32921 0.21821,0.52679l0,0c0,0.41145 -0.33355,0.745 -0.745,0.745l0,0c-0.41145,0 -0.745,-0.33355 -0.745,-0.745zm0.3725,0l0,0c0,0.20573 0.16677,0.3725 0.3725,0.3725c0.20573,0 0.3725,-0.16677 0.3725,-0.3725c0,-0.20573 -0.16677,-0.3725 -0.3725,-0.3725l0,0c-0.20573,0 -0.3725,0.16677 -0.3725,0.3725z" stroke="#000" fill="#fff"/>
 </g>

</svg>